<svg preserveAspectRatio="none" overflow="visible" style="display: block;" width="25.3333" height="23" viewBox="0 0 25.3333 23" fill="none" xmlns="http://www.w3.org/2000/svg">
<path id="Vector" d="M12.6667 11.5V16.1667M15 13.8333H10.3333M17.3333 5.66667V3.33333C17.3333 2.71449 17.0875 2.121 16.6499 1.68342C16.2123 1.24583 15.6188 1 15 1H10.3333C9.71449 1 9.121 1.24583 8.68342 1.68342C8.24583 2.121 8 2.71449 8 3.33333V5.66667M19.6667 5.66667V22M5.66667 5.66667V22M3.33333 5.66667H22C23.2887 5.66667 24.3333 6.71134 24.3333 8V19.6667C24.3333 20.9553 23.2887 22 22 22H3.33333C2.04467 22 1 20.9553 1 19.6667V8C1 6.71134 2.04467 5.66667 3.33333 5.66667Z" stroke="#005691" stroke-width="2" stroke-linecap="round" stroke-linejoin="round"/>
</svg>
